<svg xmlns="http://www.w3.org/2000/svg" viewBox="0 0 512 512"><defs><style>.cls-1{fill:#4f619d;}.cls-2{fill:#c27135;}.cls-3{fill:#fff;}.cls-4{fill:#a26231;}.cls-5{fill:#cfcfcf;}.cls-6{fill:#ad7d55;}.cls-7{fill:#916c4b;}.cls-8{fill:#1e2f2c;}.cls-9{fill:#172321;}.cls-10{fill:#253d3a;}.cls-11{fill:#1f312e;}.cls-12{fill:#a76633;}.cls-13{fill:#8ed685;}.cls-14{fill:#db3a46;}.cls-15{fill:#62ac8d;}.cls-16{fill:#9b112e;}.cls-17{fill:#dc7da7;}.cls-18{fill:#c6668f;}</style></defs><title>Food</title><g id="BULINE"><circle class="cls-1" cx="256" cy="256" r="256"/></g><g id="Icons"><path class="cls-2" d="M222.51,2.18l-1.26,58.23-.65,29.74-.13,5.91v.47l-1,46.38-.17,8.1-.64,29.17-.13,6.2a12.12,12.12,0,0,1-5,9.55c-.22.16-.44.31-.67.45s-.63.37-1,.54l-.77.36h0c-.27.11-.54.21-.82.3a10.47,10.47,0,0,1-1.58.41l-.42.07-.18,0a3.81,3.81,0,0,1-.59.07c-.34,0-.69,0-1,0a12.09,12.09,0,0,1-12.07-11.82l-.91-42-.94-43.09-.11-5.21L190.48,8.47q6.92-1.83,14-3.27Q213.37,3.37,222.51,2.18Z"/><path class="cls-3" d="M220.47,96.06l-2,90.32a12.08,12.08,0,0,1-24.16,0l-2-90.32Z"/><path class="cls-4" d="M213.46,195.93c-.22.16-.44.31-.67.45s-.63.37-1,.54l-.77.36h0c-.27.11-.54.21-.82.3a10.47,10.47,0,0,1-1.58.41l-.42.07-.18,0a3.81,3.81,0,0,1-.59.07c-.34,0-.69,0-1,0a12.09,12.09,0,0,1-12.07-11.82l-.91-42-.94-43.09-.11-5.21L190.48,8.47q6.92-1.83,14-3.27L206,74.87l.46,21.19.16,7.19v0l.08,3.87v0l.57,26v0l.18,8.22v0l.63,28.74.35,16.22A11.93,11.93,0,0,0,213.46,195.93Z"/><path class="cls-5" d="M213.46,195.93a12.07,12.07,0,0,1-19.11-9.55l-2-90.32h14.05l2,90.32A11.93,11.93,0,0,0,213.46,195.93Z"/><rect class="cls-6" x="9.68" y="346.96" width="490.48" height="82.08" rx="29.99"/><path class="cls-7" d="M500.16,377.59V399.7a30,30,0,0,1-30,30H39.67a30,30,0,0,1-30-30V377.59a29.63,29.63,0,0,1,.38-4.74A30,30,0,0,0,39.67,398.1h430.5a30,30,0,0,0,29.61-25.25A29.63,29.63,0,0,1,500.16,377.59Z"/><path class="cls-3" d="M227.87,212.76a11.73,11.73,0,0,0-10.5,6.51,11.67,11.67,0,0,0-14.15,1.4,11.74,11.74,0,0,0-22.41.7,11.71,11.71,0,0,0-17.38,0,11.73,11.73,0,0,0-21.89-1.94,11.75,11.75,0,1,0,4.16,14.92,11.73,11.73,0,0,0,15.11-1.95,11.73,11.73,0,0,0,22.62,0,11.71,11.71,0,0,0,16.69.7,11.74,11.74,0,0,0,21.6,1.41,11.75,11.75,0,1,0,6.15-21.75Z"/><path class="cls-8" d="M125.89,229.26H237.1a11.69,11.69,0,0,1,11.69,11.69V353.26a0,0,0,0,1,0,0H114.21a0,0,0,0,1,0,0V240.95A11.69,11.69,0,0,1,125.89,229.26Z"/><path class="cls-9" d="M160.93,229.26A11.68,11.68,0,0,0,149.25,241V353.26h-35V241a11.69,11.69,0,0,1,11.69-11.69Z"/><path class="cls-3" d="M377,212.76a11.73,11.73,0,0,0-10.5,6.51,11.67,11.67,0,0,0-14.15,1.4,11.74,11.74,0,0,0-22.41.7,11.71,11.71,0,0,0-17.38,0,11.73,11.73,0,0,0-21.89-1.94,11.75,11.75,0,1,0,4.16,14.92A11.73,11.73,0,0,0,310,232.4a11.73,11.73,0,0,0,22.62,0,11.71,11.71,0,0,0,16.69.7,11.74,11.74,0,0,0,21.6,1.41A11.75,11.75,0,1,0,377,212.76Z"/><path class="cls-8" d="M275.06,229.26H386.27A11.69,11.69,0,0,1,398,240.95V353.26a0,0,0,0,1,0,0H263.38a0,0,0,0,1,0,0V240.95A11.69,11.69,0,0,1,275.06,229.26Z"/><path class="cls-9" d="M310.1,229.26A11.68,11.68,0,0,0,298.42,241V353.26h-35V241a11.69,11.69,0,0,1,11.69-11.69Z"/><circle class="cls-10" cx="106.91" cy="341.68" r="74.58"/><path class="cls-11" d="M120.15,415.09a74.59,74.59,0,1,1,0-146.82,74.6,74.6,0,0,0,0,146.82Z"/><path class="cls-3" d="M53.23,341.68c0,6.16-5.72,13.15-3.91,18.71,1.87,5.76,10.66,8.05,14.15,12.84s3,13.9,7.85,17.43,13.23.22,19,2.09c5.56,1.81,10.43,9.47,16.59,9.47s11-7.66,16.6-9.47c5.76-1.87,14.19,1.4,19-2.09s4.32-12.58,7.85-17.43,12.28-7.08,14.15-12.84c1.81-5.56-3.9-12.55-3.9-18.71s5.71-13.15,3.9-18.71c-1.87-5.77-10.66-8.05-14.15-12.85s-3-13.9-7.85-17.42-13.23-.22-19-2.09c-5.56-1.81-10.44-9.47-16.6-9.47s-11,7.66-16.59,9.47c-5.77,1.87-14.2-1.4-19,2.09S67,305.28,63.47,310.12,51.19,317.2,49.32,323C47.51,328.53,53.23,335.52,53.23,341.68Z"/><path class="cls-5" d="M112.92,392.75a18.44,18.44,0,0,1,5.3,3.17c-3.59,2.82-7.16,6.3-11.31,6.3-6.16,0-11-7.66-16.59-9.47-5.76-1.86-14.2,1.4-19-2.09S67,378.08,63.48,373.24s-12.28-7.08-14.16-12.85c-1.8-5.56,3.91-12.55,3.91-18.71S47.52,328.52,49.32,323c1.88-5.76,10.66-8,14.15-12.84s3-13.9,7.86-17.43,13.23-.22,19-2.09c5.56-1.8,10.43-9.46,16.59-9.46,4.15,0,7.72,3.48,11.31,6.29a18,18,0,0,1-5.3,3.17c-5.76,1.87-14.2-1.39-19,2.09s-4.32,12.59-7.84,17.43S73.8,317.2,71.93,323c-1.82,5.56,3.9,12.56,3.9,18.72s-5.72,13.15-3.9,18.71c1.87,5.77,10.66,8.05,14.15,12.85s3,13.9,7.84,17.42S107.16,390.89,112.92,392.75Z"/><circle class="cls-2" cx="106.91" cy="341.68" r="34.87"/><path class="cls-12" d="M116.93,375.09a34.87,34.87,0,1,1,0-66.82,34.88,34.88,0,0,0,0,66.82Z"/><circle class="cls-13" cx="88.99" cy="368.48" r="11.46"/><circle class="cls-14" cx="77.53" cy="349.91" r="11.46"/><circle class="cls-15" cx="109.09" cy="374.37" r="13.64"/><circle class="cls-10" cx="264.38" cy="121.26" r="74.58"/><path class="cls-11" d="M277.62,194.68a74.59,74.59,0,1,1,0-146.83,74.6,74.6,0,0,0,0,146.83Z"/><path class="cls-3" d="M210.69,121.26c0,6.16-5.71,13.16-3.9,18.72,1.87,5.76,10.66,8,14.15,12.84s3,13.9,7.85,17.42,13.23.23,19,2.1c5.56,1.8,10.44,9.46,16.6,9.46s11-7.66,16.59-9.46c5.76-1.87,14.2,1.39,19-2.1s4.32-12.58,7.85-17.42S320.1,145.74,322,140c1.8-5.56-3.91-12.56-3.91-18.72s5.71-13.15,3.91-18.71c-1.87-5.76-10.66-8-14.16-12.84s-3-13.9-7.85-17.43-13.23-.22-19-2.09c-5.56-1.8-10.43-9.47-16.59-9.47s-11,7.67-16.6,9.47c-5.76,1.87-14.2-1.4-19,2.09s-4.33,12.58-7.85,17.43-12.28,7.08-14.15,12.84C205,108.11,210.69,115.1,210.69,121.26Z"/><path class="cls-5" d="M270.38,172.34a17.75,17.75,0,0,1,5.3,3.17c-3.58,2.82-7.16,6.29-11.3,6.29-6.16,0-11-7.66-16.59-9.46-5.77-1.87-14.2,1.39-19-2.09s-4.33-12.59-7.84-17.43-12.29-7.08-14.17-12.84c-1.8-5.56,3.92-12.56,3.92-18.72s-5.72-13.15-3.92-18.71c1.88-5.76,10.67-8,14.16-12.84s3-13.9,7.85-17.43,13.23-.22,19-2.09c5.56-1.8,10.43-9.47,16.59-9.47,4.14,0,7.72,3.48,11.3,6.3a17.75,17.75,0,0,1-5.3,3.17c-5.76,1.87-14.2-1.4-19,2.09s-4.32,12.58-7.85,17.43-12.28,7.08-14.15,12.84c-1.81,5.56,3.91,12.55,3.91,18.71s-5.72,13.16-3.91,18.72c1.87,5.76,10.67,8.05,14.15,12.84s3,13.9,7.85,17.43S264.62,170.47,270.38,172.34Z"/><circle class="cls-2" cx="264.38" cy="121.26" r="34.87"/><path class="cls-12" d="M274.39,154.67a34.88,34.88,0,1,1,0-66.81,34.87,34.87,0,0,0,0,66.81Z"/><circle class="cls-13" cx="246.45" cy="148.07" r="11.46"/><circle class="cls-14" cx="234.99" cy="129.5" r="11.46"/><circle class="cls-15" cx="266.56" cy="153.95" r="13.64"/><circle class="cls-10" cx="256.08" cy="341.68" r="74.58"/><path class="cls-11" d="M269.32,415.09a74.59,74.59,0,1,1,0-146.82,74.6,74.6,0,0,0,0,146.82Z"/><path class="cls-3" d="M202.39,341.68c0,6.16-5.71,13.15-3.9,18.71,1.87,5.76,10.66,8.05,14.15,12.84s3,13.9,7.85,17.43,13.23.22,19,2.09c5.55,1.81,10.43,9.47,16.59,9.47s11-7.66,16.6-9.47c5.76-1.87,14.19,1.4,19-2.09s4.32-12.58,7.85-17.43,12.28-7.08,14.15-12.84c1.81-5.56-3.9-12.55-3.9-18.71s5.71-13.15,3.9-18.71c-1.87-5.77-10.66-8.05-14.15-12.85s-3-13.9-7.85-17.42-13.23-.22-19-2.09c-5.56-1.81-10.44-9.47-16.6-9.47s-11,7.66-16.59,9.47c-5.77,1.87-14.2-1.4-19,2.09s-4.32,12.58-7.85,17.42S200.36,317.2,198.49,323C196.68,328.53,202.39,335.52,202.39,341.68Z"/><path class="cls-5" d="M262.09,392.75a18.44,18.44,0,0,1,5.3,3.17c-3.59,2.82-7.16,6.3-11.31,6.3-6.16,0-11-7.66-16.59-9.47-5.76-1.86-14.2,1.4-19-2.09s-4.33-12.58-7.85-17.42-12.28-7.08-14.16-12.85c-1.8-5.56,3.91-12.55,3.91-18.71s-5.71-13.16-3.91-18.72c1.88-5.76,10.66-8,14.15-12.84s3-13.9,7.86-17.43,13.23-.22,19-2.09c5.56-1.8,10.43-9.46,16.59-9.46,4.15,0,7.72,3.48,11.31,6.29a18,18,0,0,1-5.3,3.17c-5.76,1.87-14.2-1.39-19,2.09s-4.32,12.59-7.84,17.43S223,317.2,221.1,323c-1.82,5.56,3.9,12.56,3.9,18.72s-5.72,13.15-3.9,18.71c1.87,5.77,10.66,8.05,14.15,12.85s3,13.9,7.84,17.42S256.33,390.89,262.09,392.75Z"/><circle class="cls-14" cx="256.08" cy="341.68" r="34.87"/><path class="cls-16" d="M266.1,375.09a34.87,34.87,0,1,1,0-66.82,34.88,34.88,0,0,0,0,66.82Z"/><circle class="cls-2" cx="280.73" cy="312.82" r="10.22"/><circle class="cls-2" cx="235.63" cy="368.48" r="10.22"/><circle class="cls-2" cx="282.96" cy="364.15" r="10.22"/><circle class="cls-2" cx="225.41" cy="324.26" r="10.22"/><circle class="cls-10" cx="405.25" cy="341.68" r="74.58"/><path class="cls-11" d="M418.49,415.09a74.59,74.59,0,1,1,0-146.82,74.6,74.6,0,0,0,0,146.82Z"/><path class="cls-3" d="M351.56,341.68c0,6.16-5.71,13.15-3.9,18.71,1.87,5.76,10.66,8.05,14.15,12.84s3,13.9,7.85,17.43,13.23.22,19,2.09c5.55,1.81,10.43,9.47,16.59,9.47s11-7.66,16.6-9.47c5.76-1.87,14.19,1.4,19-2.09s4.32-12.58,7.85-17.43,12.28-7.08,14.15-12.84c1.81-5.56-3.9-12.55-3.9-18.71s5.71-13.15,3.9-18.71c-1.87-5.77-10.66-8.05-14.15-12.85s-3-13.9-7.85-17.42-13.23-.22-19-2.09c-5.56-1.81-10.44-9.47-16.6-9.47s-11,7.66-16.6,9.47c-5.76,1.87-14.19-1.4-19,2.09s-4.32,12.58-7.85,17.42S349.53,317.2,347.66,323C345.85,328.53,351.56,335.52,351.56,341.68Z"/><path class="cls-5" d="M411.26,392.75a18.44,18.44,0,0,1,5.3,3.17c-3.59,2.82-7.16,6.3-11.31,6.3-6.16,0-11-7.66-16.59-9.47-5.76-1.86-14.2,1.4-19-2.09s-4.33-12.58-7.85-17.42-12.28-7.08-14.16-12.85c-1.8-5.56,3.91-12.55,3.91-18.71s-5.71-13.16-3.91-18.72c1.88-5.76,10.66-8,14.15-12.84s3-13.9,7.86-17.43,13.23-.22,19-2.09c5.56-1.8,10.43-9.46,16.59-9.46,4.15,0,7.72,3.48,11.31,6.29a18,18,0,0,1-5.3,3.17c-5.77,1.87-14.2-1.39-19,2.09s-4.32,12.59-7.84,17.43S372.14,317.2,370.27,323c-1.82,5.56,3.9,12.56,3.9,18.72s-5.72,13.15-3.9,18.71c1.87,5.77,10.66,8.05,14.15,12.85s3,13.9,7.84,17.42S405.49,390.89,411.26,392.75Z"/><circle class="cls-17" cx="405.25" cy="341.68" r="34.87"/><path class="cls-18" d="M415.27,375.09a34.87,34.87,0,1,1,0-66.82,34.88,34.88,0,0,0,0,66.82Z"/><circle class="cls-15" cx="429.9" cy="312.82" r="10.22"/><circle class="cls-15" cx="384.8" cy="368.48" r="10.22"/><circle class="cls-15" cx="432.13" cy="364.15" r="10.22"/><circle class="cls-15" cx="374.58" cy="324.26" r="10.22"/><path class="cls-2" d="M375.72,29.67,346.93,113.9,317.7,199.38a12.12,12.12,0,0,1-8.79,7.87l-.09,0c-.32.07-.64.12-1,.17l-.22,0c-.29,0-.57.05-.86.06l-.29,0c-.37,0-.74,0-1.11,0h-.13a11.51,11.51,0,0,1-1.73-.27c-.3-.07-.61-.16-.91-.25a12.09,12.09,0,0,1-7.92-14.93l.89-3,6-20.35h0l18.6-63.28,1.22-4.16,5.9-20.06,19-64.77q6.63,2.49,13.07,5.34Q367.72,25.42,375.72,29.67Z"/><path class="cls-3" d="M346.93,113.9,317.7,199.38a12.08,12.08,0,0,1-23-7.32l25.48-86.67Z"/><path class="cls-4" d="M359.39,21.74l-23.26,79.12-2.58,8.79-19.86,67.57-5.62,19.1A12,12,0,0,0,310,207a12,12,0,0,1-4.62.57h-.13a12.94,12.94,0,0,1-1.73-.27c-.3-.07-.61-.16-.91-.25a12.09,12.09,0,0,1-7.92-14.93l.89-3,6-20.35h0l18.6-63.28,1.22-4.16,5.9-20.06,19-64.77Q353,18.89,359.39,21.74Z"/><path class="cls-5" d="M310,207a12.05,12.05,0,0,1-15.31-14.89l25.48-86.67,13.39,4.26-25.48,86.67A12,12,0,0,0,310,207Z"/></g></svg>